<svg width="20" height="20" viewBox="0 0 20 20" fill="none" xmlns="http://www.w3.org/2000/svg">
<path d="M8.33334 1.66666H11.6667C12.1087 1.66666 12.5326 1.84226 12.8452 2.15482C13.1577 2.46738 13.3333 2.8913 13.3333 3.33333V5H16.6667C17.1087 5 17.5326 5.17559 17.8452 5.48815C18.1577 5.80071 18.3333 6.22464 18.3333 6.66666V15.8333C18.3333 16.2754 18.1577 16.6993 17.8452 17.0118C17.5326 17.3244 17.1087 17.5 16.6667 17.5H3.33334C2.40834 17.5 1.66667 16.75 1.66667 15.8333V6.66666C1.66667 5.74166 2.40834 5 3.33334 5H6.66667V3.33333C6.66667 2.40833 7.40834 1.66666 8.33334 1.66666ZM11.6667 5V3.33333H8.33334V5H11.6667Z" fill="#408B6D"/>
</svg>
