<svg width="20" height="20" viewBox="0 0 20 20" fill="none" xmlns="http://www.w3.org/2000/svg">
<path d="M10 1.66666C8.90566 1.66666 7.82202 1.88221 6.81098 2.301C5.79993 2.71979 4.88127 3.33362 4.10745 4.10744C2.54465 5.67024 1.66667 7.78986 1.66667 10C1.66667 12.2101 2.54465 14.3298 4.10745 15.8926C4.88127 16.6664 5.79993 17.2802 6.81098 17.699C7.82202 18.1178 8.90566 18.3333 10 18.3333C12.2101 18.3333 14.3298 17.4554 15.8926 15.8926C17.4554 14.3298 18.3333 12.2101 18.3333 10C18.3333 8.90565 18.1178 7.82201 17.699 6.81097C17.2802 5.79992 16.6664 4.88126 15.8926 4.10744C15.1187 3.33362 14.2001 2.71979 13.189 2.301C12.178 1.88221 11.0944 1.66666 10 1.66666ZM13.5 13.5L9.16667 10.8333V5.83333H10.4167V10.1667L14.1667 12.4167L13.5 13.5Z" fill="#408B6D"/>
</svg>
