<svg width="20" height="20" viewBox="0 0 20 20" fill="none" xmlns="http://www.w3.org/2000/svg">
<path d="M15 12.5H13.3333V14.1667H15M15 9.16667H13.3333V10.8333H15M16.6667 15.8333H10V14.1667H11.6667V12.5H10V10.8333H11.6667V9.16667H10V7.5H16.6667M8.33334 5.83333H6.66667V4.16667H8.33334M8.33334 9.16667H6.66667V7.5H8.33334M8.33334 12.5H6.66667V10.8333H8.33334M8.33334 15.8333H6.66667V14.1667H8.33334M5.00001 5.83333H3.33334V4.16667H5.00001M5.00001 9.16667H3.33334V7.5H5.00001M5.00001 12.5H3.33334V10.8333H5.00001M5.00001 15.8333H3.33334V14.1667H5.00001M10 5.83333V2.5H1.66667V17.5H18.3333V5.83333H10Z" fill="#408B6D"/>
</svg>
